<svg xmlns="http://www.w3.org/2000/svg" viewBox="0 0 720 360" font-family="-apple-system,Segoe UI,Roboto,sans-serif">
<rect width="720" height="360" fill="#0f1521" rx="14"/>
<rect x="72.5" y="263.4" width="53.9" height="40.6" fill="#7d8da3" rx="4"/>
<text x="99.4" y="257.4" fill="#dce8f7" font-size="10.5" text-anchor="middle">40.7</text>
<text x="99.4" y="322" fill="#5a6b82" font-size="10.5" text-anchor="middle">none</text>
<rect x="159.4" y="213.0" width="53.9" height="91.0" fill="#58a6ff" rx="4"/>
<text x="186.3" y="207.0" fill="#dce8f7" font-size="10.5" text-anchor="middle">43.2</text>
<text x="186.3" y="322" fill="#5a6b82" font-size="10.5" text-anchor="middle">inoc</text>
<rect x="246.2" y="226.1" width="53.9" height="77.9" fill="#f0883e" rx="4"/>
<text x="273.1" y="220.1" fill="#dce8f7" font-size="10.5" text-anchor="middle">42.5</text>
<text x="273.1" y="322" fill="#5a6b82" font-size="10.5" text-anchor="middle">a=1.0</text>
<rect x="333.1" y="209.3" width="53.9" height="94.7" fill="#f0883e" rx="4"/>
<text x="360.0" y="203.3" fill="#dce8f7" font-size="10.5" text-anchor="middle">43.4</text>
<text x="360.0" y="322" fill="#5a6b82" font-size="10.5" text-anchor="middle">a=1.5</text>
<rect x="419.9" y="173.4" width="53.9" height="130.6" fill="#f0883e" rx="4"/>
<text x="446.9" y="167.4" fill="#dce8f7" font-size="10.5" text-anchor="middle">45.1</text>
<text x="446.9" y="322" fill="#5a6b82" font-size="10.5" text-anchor="middle">a=2.0</text>
<rect x="506.8" y="127.2" width="53.9" height="176.8" fill="#f0883e" rx="4"/>
<text x="533.7" y="121.2" fill="#dce8f7" font-size="10.5" text-anchor="middle">47.4</text>
<text x="533.7" y="322" fill="#5a6b82" font-size="10.5" text-anchor="middle">a=3.0</text>
<rect x="593.6" y="96.6" width="53.9" height="207.4" fill="#f0883e" rx="4"/>
<text x="620.6" y="90.6" fill="#dce8f7" font-size="10.5" text-anchor="middle">48.9</text>
<text x="620.6" y="322" fill="#5a6b82" font-size="10.5" text-anchor="middle">a=5.0</text>
<text x="14" y="180" fill="#dce8f7" font-size="12" text-anchor="middle" transform="rotate(-90 14 180)">FoQA F1 (%)</text>
</svg>