<svg xmlns="http://www.w3.org/2000/svg" viewBox="0 0 720 420" font-family="-apple-system,Segoe UI,Roboto,sans-serif">
<rect width="720" height="420" fill="#0f1521" rx="14"/>
<line x1="56" y1="341.5" x2="664" y2="341.5" stroke="#1f2a3a"/>
<text x="48" y="345.5" fill="#5a6b82" font-size="11" text-anchor="end">40</text>
<line x1="56" y1="286.7" x2="664" y2="286.7" stroke="#1f2a3a"/>
<text x="48" y="290.7" fill="#5a6b82" font-size="11" text-anchor="end">42</text>
<line x1="56" y1="231.8" x2="664" y2="231.8" stroke="#1f2a3a"/>
<text x="48" y="235.8" fill="#5a6b82" font-size="11" text-anchor="end">44</text>
<line x1="56" y1="177.0" x2="664" y2="177.0" stroke="#1f2a3a"/>
<text x="48" y="181.0" fill="#5a6b82" font-size="11" text-anchor="end">46</text>
<line x1="56" y1="122.1" x2="664" y2="122.1" stroke="#1f2a3a"/>
<text x="48" y="126.1" fill="#5a6b82" font-size="11" text-anchor="end">48</text>
<line x1="56" y1="67.2" x2="664" y2="67.2" stroke="#1f2a3a"/>
<text x="48" y="71.2" fill="#5a6b82" font-size="11" text-anchor="end">50</text>
<text x="56.0" y="382" fill="#5a6b82" font-size="11" text-anchor="middle">1</text>
<text x="132.0" y="382" fill="#5a6b82" font-size="11" text-anchor="middle">1.5</text>
<text x="208.0" y="382" fill="#5a6b82" font-size="11" text-anchor="middle">2</text>
<text x="360.0" y="382" fill="#5a6b82" font-size="11" text-anchor="middle">3</text>
<text x="664.0" y="382" fill="#5a6b82" font-size="11" text-anchor="middle">5</text>
<text x="360" y="408" fill="#dce8f7" font-size="12" text-anchor="middle">steering coefficient α (malicious persona, applied during training)</text>
<text x="14" y="210" fill="#dce8f7" font-size="12" text-anchor="middle" transform="rotate(-90 14 210)">FoQA F1 (%)</text>
<line x1="56" y1="322.9" x2="664" y2="322.9" stroke="#7d8da3" stroke-width="1.5" stroke-dasharray="6 5" opacity="0.9"/>
<text x="660" y="316.9" fill="#7d8da3" font-size="11" text-anchor="end">no intervention 40.7</text>
<line x1="56" y1="254.6" x2="664" y2="254.6" stroke="#58a6ff" stroke-width="1.5" stroke-dasharray="6 5" opacity="0.9"/>
<text x="660" y="248.6" fill="#58a6ff" font-size="11" text-anchor="end">inoculation 43.2</text>
<polyline points="56.0,272.4 132.0,249.6 208.0,201.1 360.0,138.6 664.0,97.1" fill="none" stroke="#f0883e" stroke-width="3"/>
<line x1="56.0" y1="300.1" x2="56.0" y2="244.7" stroke="#f0883e" stroke-width="1.5" opacity="0.7"/>
<circle cx="56.0" cy="272.4" r="4.5" fill="#f0883e"/>
<text x="56.0" y="262.4" fill="#dce8f7" font-size="10.5" text-anchor="middle">42.5</text>
<line x1="132.0" y1="269.7" x2="132.0" y2="229.6" stroke="#f0883e" stroke-width="1.5" opacity="0.7"/>
<circle cx="132.0" cy="249.6" r="4.5" fill="#f0883e"/>
<text x="132.0" y="239.6" fill="#dce8f7" font-size="10.5" text-anchor="middle">43.4</text>
<line x1="208.0" y1="229.3" x2="208.0" y2="172.8" stroke="#f0883e" stroke-width="1.5" opacity="0.7"/>
<circle cx="208.0" cy="201.1" r="4.5" fill="#f0883e"/>
<text x="208.0" y="191.1" fill="#dce8f7" font-size="10.5" text-anchor="middle">45.1</text>
<line x1="360.0" y1="154.7" x2="360.0" y2="122.4" stroke="#f0883e" stroke-width="1.5" opacity="0.7"/>
<circle cx="360.0" cy="138.6" r="4.5" fill="#f0883e"/>
<text x="360.0" y="128.6" fill="#dce8f7" font-size="10.5" text-anchor="middle">47.4</text>
<line x1="664.0" y1="101.5" x2="664.0" y2="92.8" stroke="#f0883e" stroke-width="1.5" opacity="0.7"/>
<circle cx="664.0" cy="97.1" r="4.5" fill="#f0883e"/>
<text x="664.0" y="87.1" fill="#dce8f7" font-size="10.5" text-anchor="middle">48.9</text>
</svg>